# xmcd
#
# Track frame offsets:
#	150
#	13289
#	32373
#	41008
#	57065
#
# Disc length: 942 seconds
# Revision: 0
# Processed by: cddbd v1.5.2PL0 Copyright (c) Steve Scherf et al.
# Submitted via: dBpowerAMP V12.0
#
DISCID=3503ac05
DTITLE=The Jugsluggers - "It's harder than it looks!"
DYEAR=2018
DGENRE=Bluegrass
TTITLE0=Carolina Hills
TTITLE1=I'm an Old Cowhand
TTITLE2=Cumberland Gap
TTITLE3=Mis Hijos
TTITLE4=Vicksburg Blues
EXTD=
EXTT0=
EXTT1=
EXTT2=
EXTT3=
EXTT4=
PLAYORDER=
